<svg width="139" height="141" viewBox="0 0 139 141" fill="none" xmlns="http://www.w3.org/2000/svg">
  <rect width="139" height="141" rx="20" fill="#E084E2"/>
  <path d="M29.7812 98.0625C29.9688 98.0938 30.1875 98.125 30.4375 98.1562C30.6562 98.1562 30.9688 98.1562 31.375 98.1562C35.3125 98.1562 38.1406 93.0469 39.8594 82.8281L40.0469 81.8906L45.0156 52.9219C45.3906 50.7031 45.6406 49.0938 45.7656 48.0938C45.8906 47.0625 45.9531 46.25 45.9531 45.6562C45.9531 44.4062 45.5156 43.4844 44.6406 42.8906C43.7656 42.2969 42.3906 42 40.5156 42H39.625L40.3281 37.9688C44.2969 38.25 47.1094 38.4375 48.7656 38.5312C50.4531 38.5938 51.8594 38.625 52.9844 38.625C54.4844 38.625 56.25 38.5781 58.2812 38.4844C60.3125 38.3906 63.0625 38.2188 66.5312 37.9688L65.9219 42H64.7031C62.4219 42 60.75 42.5312 59.6875 43.5938C58.6562 44.625 57.7969 47.0312 57.1094 50.8125L54.4375 65.9062C56.7812 66 59.0469 66.0781 61.2344 66.1406C63.4219 66.1719 65.5312 66.1875 67.5625 66.1875C69.6562 66.1875 72.0625 66.1719 74.7812 66.1406C77.5312 66.0781 80.625 66 84.0625 65.9062L86.2188 53.0156C86.5625 51.0156 86.7969 49.4688 86.9219 48.375C87.0781 47.25 87.1562 46.3438 87.1562 45.6562C87.1562 44.375 86.7031 43.4531 85.7969 42.8906C84.8906 42.2969 83.4219 42 81.3906 42H80.9219L81.5781 37.9688L82 38.0156C88.125 38.4219 92.1094 38.625 93.9531 38.625C95.4844 38.625 97.2344 38.5781 99.2031 38.4844C101.172 38.3906 103.938 38.2188 107.5 37.9688L106.844 42H106.094C104.312 42 102.938 42.2344 101.969 42.7031C101.031 43.1406 100.312 43.8594 99.8125 44.8594C99.4375 45.6719 98.9219 47.7344 98.2656 51.0469C97.6094 54.3594 96.5625 60.1406 95.125 68.3906L94.4688 72.0469C93.3125 78.7969 92.4688 83.8594 91.9375 87.2344C91.4375 90.5781 91.1875 92.6875 91.1875 93.5625C91.1875 95.1875 91.5625 96.3281 92.3125 96.9844C93.0625 97.6406 94.3906 97.9688 96.2969 97.9688H97.7031L97.0469 102C94.3281 101.781 91.7969 101.625 89.4531 101.531C87.1406 101.406 85.0938 101.344 83.3125 101.344C81.75 101.344 79.8438 101.406 77.5938 101.531C75.3438 101.625 72.875 101.781 70.1875 102L70.9375 98.0625C71.1562 98.0938 71.4062 98.125 71.6875 98.1562C71.9688 98.1562 72.3594 98.1562 72.8594 98.1562C76.5156 98.1562 78.9688 94.625 80.2188 87.5625L80.3594 86.8125L82.9375 72.0469C81.0938 71.9844 79.1562 71.9375 77.125 71.9062C75.125 71.875 72.2969 71.8594 68.6406 71.8594C64.7344 71.8594 61.6875 71.875 59.5 71.9062C57.3125 71.9375 55.2344 71.9844 53.2656 72.0469L50.4062 88.6406C50.25 89.5781 50.125 90.4531 50.0312 91.2656C49.9688 92.0469 49.9219 92.75 49.8906 93.375C49.8906 95.0625 50.2812 96.2656 51.0625 96.9844C51.875 97.7031 53.2188 98.0625 55.0938 98.0625C55.5312 98.0625 55.8594 98.0625 56.0781 98.0625C56.2969 98.0312 56.5156 98 56.7344 97.9688L56.0781 101.906C53.2031 101.719 50.5938 101.578 48.25 101.484C45.9062 101.391 43.875 101.344 42.1562 101.344C40.8125 101.344 39 101.406 36.7188 101.531C34.4688 101.625 31.8906 101.781 28.9844 102L29.7812 98.0625Z" fill="white"/>
</svg>
